# xmcd CD Database Entry
#
# Track frame offsets:
# 150
# 17187
# 38842
# 59553
# 83035
# 100606
# 121909
# 140976
# 159537
# 195650
# 216588
# 239855
# 257628
# 277200
# 298515
# 316351
#
# Disc length: 4550 seconds
#
# Revision: 1
# Processed by: cddbd v1.4PL0 Copyright (c) Steve Scherf et al.
# Submitted via: tcd 2.0b
#
DISCID=fd11c410
DTITLE=Nick Cave and the Bad Seeds - The Best of Nick Cave and the Bad S
DTITLE=eeds -- CD 1
DYEAR=1900
DGENRE=
TTITLE0=Deanna
TTITLE1=Red right hand
TTITLE2=Straight to you
TTITLE3=Tupelo
TTITLE4=Nobody's baby now
TTITLE5=Stranger than kindness
TTITLE6=Into my arms
TTITLE7=(Are you) the one that I've been waiting for?
TTITLE8=The carny
TTITLE9=Do you love me
TTITLE10=The mercy seat
TTITLE11=Henry Lee
TTITLE12=The weeping song
TTITLE13=The ship song
TTITLE14=Where the wild roses grow
TTITLE15=From her to eternity
EXTD=
EXTT0=
EXTT1=
EXTT2=
EXTT3=
EXTT4=
EXTT5=
EXTT6=
EXTT7=
EXTT8=
EXTT9=
EXTT10=
EXTT11=
EXTT12=
EXTT13=
EXTT14=
EXTT15=
PLAYORDER=
